<?xml version="1.0" encoding="utf-8"?>
<!-- Generator: Adobe Illustrator 19.1.0, SVG Export Plug-In . SVG Version: 6.00 Build 0)  -->
<svg version="1.1" id="Layer_1" xmlns="http://www.w3.org/2000/svg" xmlns:xlink="http://www.w3.org/1999/xlink" x="0px" y="0px"
	 width="395px" height="395px" viewBox="0 0 395 395" style="enable-background:new 0 0 395 395;" xml:space="preserve">
<style type="text/css">
	.st0{fill:#FDAF30;}
	.st1{fill:#363639;}
	.st2{fill:#FF6A24;}
	.st3{fill:#6565E0;}
</style>
<path class="st0" d="M198.4,293.8c-41.9,9.5-88.8,4.4-101.9,2c-13.2-2.4-36.9-13.8-43.2-31.1c-4.1-11.1,0.3-17.9-3.4-20.9
	c-5.3-4.3-10.9,4.9-15.9,0.7c-9.7-8.2-12.7-9.4-12.5-19.2c0.7-28,19-53,26.3-80c5.1-18.6,27.9-51.1,33.1-54.7
	c18.2-12.5,29.4-13.2,53-13.5c23.6-0.3,39.8,2.7,58.6,13.5c4.5,2.6,18.6,16.2,31.2,41.5c13.1,26.2,24.6,64.4,26,90.8
	c2,38.5-15.2,30.4-15.9,36.8C231.2,285.2,211.2,290.9,198.4,293.8z"/>
<g>
	<circle class="st1" cx="74" cy="159.5" r="10.5"/>
	<circle class="st1" cx="176.7" cy="161.7" r="10.5"/>
	<g>
		<path class="st2" d="M161.3,178.5c0,3.3,1.5,9-1.5,11.7c-2.7,2.4-7.9,9.2-13.1,12.3c-7.1,4.2-15,4.5-22.9,4.5
			c-4.4,0-16.6-2.8-20.7-6c-3.5-2.7,0.9-5.8-2.3-6.6c-4.4-1.2-8.2-2.8-10.6-4.9c-3-2.7-2.1-7.6-2.1-10.9c0-10.2,16.4-18.4,36.6-18.4
			S161.3,168.4,161.3,178.5z"/>
		<circle class="st1" cx="109.3" cy="178.3" r="5"/>
		<circle class="st1" cx="140.3" cy="178.3" r="5"/>
		<path class="st1" d="M159.6,169.2c-0.3-0.2-0.8-0.6-1.4-1.1c-3.9-3.2-13.1-10.9-32.8-11.3c-23.2-0.6-36.4,12.2-37,12.8l-0.2,0.2
			l-0.1,0.2c-0.2,0.4-5.5,9.2-2.7,16.9c1.4,3.9,4.6,6.8,9.4,8.5c0.7,0.3,1.5,0.5,2.3,0.7c0.9,2.5,4,8.2,13.2,11.4
			c5.8,2,12.7,2.9,18.9,2.9c5.3,0,10.2-0.6,13.4-1.8c1.1-0.3,9.1-2.9,12.3-11.9c1.4-0.4,2.6-0.9,3.6-1.5c4.4-2.6,6.7-6.8,6.6-12.2
			C165.1,177,162.1,170.6,159.6,169.2z M141.4,204.3l-0.2,0.1c-5.3,1.9-18.9,2.6-29.5-1.1c-4.7-1.7-7.4-4-8.9-5.9
			c5.4,1,9.9,1.3,10.2,1.3c1.5,0.1,7.9,0.5,15.6,0.5c6.8,0,14.6-0.3,20.8-1.3C146.5,202.9,141.6,204.3,141.4,204.3z M160.7,183.7
			c-0.2,3.4-1.7,5.8-4.4,7.4c-7.2,4.2-33.4,3.9-42.9,2.9h0c-0.1,0-9.6-0.4-17.1-3.1c-3.5-1.2-5.7-3.1-6.7-5.7
			c-1.8-5.1,1.4-11.5,2.2-12.8c1.7-1.5,13.8-11.8,33.5-11.3c18.1,0.4,26.2,7.1,30.1,10.3c0.8,0.7,1.5,1.2,2,1.5
			C158.3,173.7,161,178.6,160.7,183.7z"/>
	</g>
	<path class="st3" d="M133.3,231.5c0,0-4.4,6.8,1,12.6s11.3-1,11.6-1.6c0.3-0.6,4.7-8.2-2.6-12.2
		C136.2,226.2,133.3,231.5,133.3,231.5z"/>
	<path class="st3" d="M146.9,233.8c0,0,38.3-9.2,67.6-29.3s27-20.1,27-20.1l3.5,14.1c0,0-36,22.4-39.7,21.9
		c-3.7-0.5-57.7,19.6-57.7,19.6L146.9,233.8z"/>
	<path class="st3" d="M235.9,160c0,0,10.4-19.4,15.2-21.7c4.8-2.3,13.6-12.9,28.4-12.7s28.6,3,34.6-3c6-6,8.1-13.8,8.1-13.8
		s12.9-3.9,17.5,2.1l10.4-2.1c0,0,10.6,2.1,13.6,6.2c3,4.2,5.8,8.8,5.8,8.8s9-0.2,9,4.4c0,4.6-5.5,5.8-5.5,5.8s-19.4,15-19.4,23.3
		s-22.6,19.4-45.7,17.5c-23.1-1.8-13.4-12-43.1-7.6c-29.8,4.4-27.4,1.2-27.4,1.2L235.9,160z"/>
	<path class="st3" d="M132,234.3c0,0-47.6-9-66.8-29.5s-21.6-15.9-27.6-30.9l-4.2,7.1c0,0,10.1,23.4,22.7,28.7s41.5,22.7,61.3,25.6
		c19.8,2.9,14.3,3.7,14.3,3.7L132,234.3z"/>
	<path class="st1" d="M379.7,127.1c-2.1-3.5-6.7-5.3-9.3-6.2c-2.6-4.3-9.1-14.6-22.1-13.9c-2.9,0.2-5.4,1.2-7.5,2.4
		c-5.8-6.8-15.4-4.5-19.9-2.2c-0.5,0.3-0.9,0.8-1.1,1.4c-4.1,14.3-9.3,14.4-38.4,14.9l-1.5,0c-24.9,0.5-39,21-44,30.1
		c-3.3-8.8-6.6-15.8-7-16.7c-0.8-2-14.2-33.4-35-47.3C173.3,75.9,145.3,75,143.1,75c-1.3-0.1-3-0.2-5-0.3l10.1-17.4
		c0.6-1.1,0.3-2.4-0.8-3c-1.1-0.6-2.4-0.3-3,0.8l-9.1,15.7l-11.5-15.9c-0.7-1-2.1-1.2-3.1-0.5c-1,0.7-1.2,2.1-0.5,3.1l12.4,17.2
		c-15,0.2-38.6,2.8-50.6,11.8C66.5,98,49.8,132,49.1,135.3c-0.5,2.8-12.3,36.6-18.4,45.6c-6.7,9.8-11.2,32.3-11.4,36.5
		c-0.2,3.9,2.8,19.8,11.1,26.9c3.7,3.1,7.9,4.1,12.6,3c1.9-0.5,3.6-0.9,5.2-1.4c0.5,5.4,2.5,21.8,8,29.3
		c6.3,8.5,21.6,18.5,33.3,21.8c3.7,1,10.3,2.1,17.3,3v17.7l-20.9,9.4c-1.1,0.5-1.7,1.8-1.2,2.9c0.5,1.1,1.9,1.6,3,1.1l19.1-8.5v14.3
		c0,1.2,0.8,2.2,2,2.2s2-1,2-2.2v-13.5l17.6,12c0.4,0.3,0.9,0.4,1.3,0.4c0.7,0,1.4-0.3,1.9-1c0.7-1,0.3-2.4-0.7-3.1L110.8,318v-17.5
		c12,1.3,26,2.2,38.6,2.2c2.3,0,4.6,0,6.8-0.1c12.2-0.4,26.5-2.8,37.5-5.9v20.1l-14.3,8.2c-1.1,0.6-1.4,2-0.8,3
		c0.4,0.7,1.2,1.1,1.9,1.1c0.4,0,0.7-0.1,1.1-0.3l12.1-6.9v12.8c0,1.2,1.3,2.2,2.5,2.2s2.5-1,2.5-2.2v-13l12,6.1
		c1.1,0.5,2.3,0.1,2.8-1c0.5-1.1,0.3-2.4-0.8-3l-14.1-7.1v-21.2c8-2.5,15.5-5.2,19.6-7.5c10.4-5.8,15.7-12.2,16.5-19.4
		c0.4-3.6,0.3-6.3,0.2-8.1c3.6-0.9,7.3-3.1,10.4-7.5c10.9-15.3,8.2-30.8,6.9-34.1c-0.5-1.3-2.9-10.8-5.4-21.5c0-0.2-0.1-0.4-0.1-0.6
		c-1.5-6.2-3-12.8-4.3-18.3c-0.2-1.8-0.5-3.7-0.8-5.6c7.9-1.5,37.3-6.3,48.5-0.9c5.3,2.6,14.5,4.6,24.6,4.6
		c15.6,0,33.2-4.9,41.3-19.9c11.5-21.2,22.3-22,22.4-22c1,0,1.8-0.7,2.1-1.6C381.1,131,380.8,128.9,379.7,127.1z M280.1,128l1.5,0
		c28.3-0.5,37.3-0.7,42.3-17.2c2.4-1,9.3-3.4,13.5,1.3c-0.6,0.6-1.2,1.1-1.6,1.6c-1.9,2.2-3.9,5.3-3.8,7.7c-0.2,0.9-2.4,5.2-7.6,8.9
		c-4.9,3.5-13.4,7-26.2,4.4c-23.1-4.8-51.9,19.3-59.7,26.4c-0.2-0.5-0.3-1-0.5-1.5C239.4,156.5,252.8,128.5,280.1,128z M53.5,136.2
		c0.8-3.4,16.9-35.6,31.2-46.2c10.9-8.1,33.7-10.7,48.4-10.9c0,0,0,0,0,0c0.3,0.2,0.7,0.3,1.1,0.3c0.4,0,0.8-0.1,1.1-0.3
		c3,0,5.6,0.1,7.5,0.3c0.1,0,0.1,0,0.2,0c0.3,0,28.5,0.6,48.5,14c20,13.4,33.3,45.1,33.4,45.4c0,0,0,0.1,0,0.1
		c0.1,0.2,11.6,24.4,13.1,40.1c0,0.1,0,0.2,0,0.3c0.2,0.7,0.5,2.2,1,4.3c-0.1,0.1-0.3,0.2-0.4,0.3c-27.8,27.3-84,45-90.9,47.1
		c-0.8-1.1-2-2-3.3-2.8c-3.1-1.7-5.9-2.2-8.4-1.5c-2.9,0.8-4.3,3-4.6,3.5c-0.2,0.4-0.5,0.8-0.7,1.2c-10.5-2.2-69.8-15-90.7-59.3
		C46.3,158.3,53.1,138.4,53.5,136.2z M144.1,241.3c-0.4,0.5-2.5,2.7-4.7,2.9c-1.2,0.1-2.3-0.4-3.4-1.6c-4.2-4.4-0.9-9.6-0.8-9.8
		l0.1-0.2c0,0,0.7-1.1,2-1.5c1.4-0.4,3.1,0,5,1.1c1.5,0.9,2.5,1.9,2.8,3.2C145.9,237.9,144.4,240.7,144.1,241.3z M37.7,177.4
		c12.8,24.3,36.1,37.9,54.5,46.2c17,7.7,31.9,11.2,37.3,12.3c0,0,0,0.1,0,0.1c-12.2-2.7-82.5-17.6-93.8-54.8
		C36.4,180.1,37,178.8,37.7,177.4z M42,243c-3.2,0.8-6.1,0.1-8.7-2.1c-7-5.9-9.7-20.5-9.6-23.2c0.2-4,3.9-21.9,9.1-31.6
		c2.7,6.7,7.3,12.8,13.6,18.4c-0.6,2.7-0.9,5.8-0.1,8.6c-2.2-0.2-3.9,0-4,0c-1.2,0.1-2.1,1.2-2,2.4c0.1,1.2,1.2,2.1,2.4,2
		c2-0.2,7.8-0.1,10.9,2.8c1.5,1.4,2.3,3.4,2.2,6l-0.1,2.1C55.4,238.7,55.4,239.8,42,243z M230.3,268.1c-0.6,5.7-5.3,10.9-14.3,16
		c-4.1,2.3-11.3,5-19.9,7.5c0,0,0,0,0,0c-0.4,0-0.8,0.1-1.1,0.3c-11.8,3.2-26,5.9-38.7,6.3c-23.4,0.7-55-2.4-65.6-5.4
		c-10.8-3.1-25.2-12.5-30.9-20.2c-5.2-7.1-7-25-7.3-28.2c7-3.1,7.4-7.1,7.6-15.9l0.1-2.1c0.1-3.9-1.1-7.1-3.6-9.4
		c-1.5-1.4-3.4-2.4-5.3-3c0-0.3-0.1-0.7-0.3-1c-0.8-1.4-0.9-3.4-0.7-5.4c8.8,6.8,20.4,13,35,19.1c20.9,8.7,40.9,13,44.5,13.8
		c0.5,1.7,1.4,3.4,2.9,5c2.3,2.4,4.6,3,6.4,3c0.3,0,0.6,0,0.9-0.1c4.3-0.5,7.4-4.3,7.8-5c0.1-0.2,0.3-0.5,0.5-0.9
		c3.8-1.1,20.5-6,39.3-13c14.2-5.3,26.1-10.4,35.8-15.5c0,2-0.7,3.3-0.7,3.4c-0.2,0.3-0.3,0.7-0.2,1c0,3.2-6.5,9.3-11.2,12.5
		c-0.2,0.2-0.5,0.4-0.6,0.7c-6.2,10-0.9,17.6,1.4,20.8c0.2,0.3,0.5,0.8,0.6,0.9c0.9,2.3,7.4,6.1,13.8,7.2c1.1,0.2,2.4,0.3,3.6,0.3
		c0.1,0,0.3,0,0.4,0C230.6,262.6,230.6,265,230.3,268.1z M243.3,201.7c2.1,8.9,4.2,17.4,4.8,18.8c1.1,2.7,3.3,16.4-6.4,29.9
		c-2.3,3.2-5.1,5.1-8.5,5.9c-0.4-0.1-0.8-0.2-1.2-0.1c-0.3,0.1-0.6,0.2-0.9,0.4c-0.2,0-0.4,0-0.6,0c-6.5,0.2-12.7-3.6-13.8-4.8
		c-0.2-0.5-0.6-1-1.1-1.7c-2-2.9-5.8-8.3-1.5-15.6c2.8-2,12.2-9.2,12.7-15.4c0.4-1.1,1.3-3.7,0.8-7.2
		C234.1,208.4,239.3,205,243.3,201.7z M242.2,196.9c-4.1,3.6-9.5,7.2-15.7,10.7l-3.9,2.1c-25.7,13.5-61.8,24.7-72.8,27.9
		c0.1-0.8,0-1.7-0.1-2.5c4.1-1.3,17.8-5.6,33.9-12.5c24.9-10.6,44-22.1,56.7-34.1C240.8,191.1,241.5,193.9,242.2,196.9z
		 M240.2,166.9c-0.1-0.4-0.2-0.7-0.3-1.1c3.3-3.1,34.4-31.5,57.4-26.8c16.9,3.5,27.4-2.9,32.2-7c4.1-3.5,7.1-8.3,7-10.7
		c0-1.6,5-9.4,12.3-9.8c8.5-0.5,13.6,5.2,16.5,9.4c-2.7,0.5-6.7,1.5-8.9,3.1c-3.2,2.3-5.5,6.8-7.7,11.1c-0.5,1-1,1.9-1.5,2.8
		c-1.9,3.6-15.4,18.8-28.5,21.4c-5.3,1.1-9.9,0.1-14-3.2C287.5,142.5,249.7,161.7,240.2,166.9z M352.1,154.6
		c-11.9,21.9-47.9,19.3-60.1,13.4c-4.5-2.2-11.2-2.9-18.4-2.9c-8.4,0-17.3,1-24.1,2c14-6.7,40.2-17.1,52.3-7.5c5.1,4,11,5.4,17.6,4
		c15.5-3.2,29.6-20.2,31.5-23.7c0.5-0.9,1-1.9,1.5-2.9c1.9-3.7,4-7.9,6.4-9.6c1.7-1.2,6.1-2.2,8.9-2.6c0,0,0,0,0,0l0,0
		c0.1,0,0.2,0,0.3,0c2,0.5,6.4,2.1,7.9,4.5c0.2,0.4,0.4,0.8,0.4,1.2C372.2,131.6,362.2,136,352.1,154.6z"/>
</g>
</svg>
