<?xml version="1.0" encoding="UTF-8" standalone="no"?>
<svg width="162px" height="46px" viewBox="0 0 162 46" version="1.1" xmlns="http://www.w3.org/2000/svg" xmlns:xlink="http://www.w3.org/1999/xlink" xmlns:sketch="http://www.bohemiancoding.com/sketch/ns">
    <!-- Generator: Sketch 3.2.2 (9983) - http://www.bohemiancoding.com/sketch -->
    <title>Group</title>
    <desc>Created with Sketch.</desc>
    <defs></defs>
    <g id="Page-1" stroke="none" stroke-width="1" fill="none" fill-rule="evenodd" sketch:type="MSPage">
        <g id="Group" sketch:type="MSLayerGroup" transform="translate(0.000000, -1.000000)" fill="#222222">
            <g transform="translate(0.000000, 0.878505)" id="Shape" sketch:type="MSShapeGroup">
                <path d="M22.9107232,45.0672897 L14.9226933,30.0009346 L9.78753117,30.0009346 L9.78753117,45.0672897 L0.30723192,45.0672897 L0.30723192,3.29439252 L15.361596,3.29439252 C24.1835411,3.29439252 31.513217,6.36915888 31.513217,16.2962617 C31.513217,22.4457944 28.484788,26.3551402 24.0957606,28.3317757 L33.4882793,45.0672897 L22.9107232,45.0672897 L22.9107232,45.0672897 Z M9.78753117,22.5336449 L14.5715711,22.5336449 C19.4872818,22.5336449 22.2084788,20.4252336 22.2084788,16.2962617 C22.2084788,12.1672897 19.5311721,10.8056075 14.5715711,10.8056075 L9.78753117,10.8056075 L9.78753117,22.5336449 L9.78753117,22.5336449 Z"></path>
                <path d="M49.2448878,12.5186916 C58.2862843,12.5186916 62.7630923,19.1074766 62.7630923,27.7607477 C62.7630923,29.4299065 62.5875312,30.9672897 62.3680798,31.7140187 L43.363591,31.7140187 C44.1975062,36.5457944 47.4014963,38.6542056 51.6149626,38.6542056 C53.9850374,38.6542056 56.1795511,37.9514019 58.4618454,36.5457944 L61.5780549,42.2560748 C58.3301746,44.4962617 54.072818,45.8579439 50.2982544,45.8579439 C41.2129676,45.8579439 34.234414,39.7084112 34.234414,29.2102804 C34.2783042,18.8878505 41.6518703,12.5186916 49.2448878,12.5186916 L49.2448878,12.5186916 Z M54.7750623,25.9158879 C54.7750623,22.2700935 53.2389027,19.6785047 49.4643392,19.6785047 C46.5236908,19.6785047 43.9780549,21.6551402 43.3197007,25.9158879 L54.7750623,25.9158879 L54.7750623,25.9158879 Z"></path>
                <path d="M83.523192,24.6420561 C83.3476309,21.8308411 81.9431421,20.0299065 78.5197007,20.0299065 C75.842394,20.0299065 73.121197,21.1280374 70.0488778,22.928972 L66.7571072,16.6915888 C70.7950125,14.2757009 75.3157107,12.5186916 80.319202,12.5186916 C88.4389027,12.5186916 92.9157107,17.1308411 92.9157107,26.882243 L92.9157107,45.0672897 L85.2349127,45.0672897 L84.5326683,41.8168224 L84.3571072,41.8168224 C81.6798005,44.188785 78.6513716,45.8579439 75.0523691,45.8579439 C69.3027431,45.8579439 65.6598504,41.6411215 65.6598504,36.2383178 C65.6598504,29.5616822 70.9705736,25.9158879 83.523192,24.6420561 L83.523192,24.6420561 Z M78.3002494,38.5224299 C80.4947631,38.5224299 81.8992519,37.5121495 83.5670823,35.8429907 L83.5670823,30.264486 C76.8518703,31.1429907 74.6573566,33.0757009 74.6573566,35.535514 C74.6134663,37.5560748 76.0618454,38.5224299 78.3002494,38.5224299 L78.3002494,38.5224299 Z"></path>
                <path d="M97.919202,0.175700935 L107.311721,0.175700935 L107.311721,35.5794393 C107.311721,37.5560748 108.189526,38.2149533 108.979551,38.2149533 C109.374564,38.2149533 109.637905,38.2149533 110.120698,38.0831776 L111.261845,45.0672897 C110.252369,45.5065421 108.628429,45.8579439 106.521696,45.8579439 C100.069825,45.8579439 97.8753117,41.6411215 97.8753117,35.2280374 L97.8753117,0.175700935 L97.919202,0.175700935 Z"></path>
                <path d="M114.465835,13.3093458 L122.146633,13.3093458 L122.804988,17.3943925 L123.068329,17.3943925 C125.701746,14.7588785 128.510723,12.5186916 132.680299,12.5186916 C137.157107,12.5186916 139.834414,14.4514019 141.458354,17.8336449 C144.267332,14.9345794 147.20798,12.5186916 151.465337,12.5186916 C158.312219,12.5186916 161.384539,17.3943925 161.384539,25.3448598 L161.384539,45.0672897 L151.99202,45.0672897 L151.99202,26.5747664 C151.99202,21.9626168 150.763092,20.5570093 148.085786,20.5570093 C146.505736,20.5570093 144.706234,21.5672897 142.643392,23.6317757 L142.643392,45.111215 L133.250873,45.111215 L133.250873,26.5747664 C133.250873,21.9626168 132.021945,20.5570093 129.344638,20.5570093 C127.808479,20.5570093 125.965087,21.5672897 123.946135,23.6317757 L123.946135,45.111215 L114.553616,45.111215 L114.553616,13.3093458 L114.465835,13.3093458 Z"></path>
            </g>
        </g>
    </g>
</svg>